<?xml version="1.0" encoding="UTF-8" standalone="no"?>
<!DOCTYPE svg PUBLIC "-//W3C//DTD SVG 1.1//EN"
 "http://www.w3.org/Graphics/SVG/1.1/DTD/svg11.dtd">
<!-- Generated by graphviz version 12.0.0 (20240704.0754)
 -->
<!-- Pages: 1 -->
<svg width="554pt" height="508pt"
 viewBox="0.00 0.00 554.33 507.91" xmlns="http://www.w3.org/2000/svg" xmlns:xlink="http://www.w3.org/1999/xlink">
<g id="graph0" class="graph" transform="scale(1 1) rotate(0) translate(4 503.91)">
<polygon fill="white" stroke="none" points="-4,4 -4,-503.91 550.33,-503.91 550.33,4 -4,4"/>
<!-- 0 -->
<g id="node1" class="node">
<title>0</title>
<ellipse fill="none" stroke="black" cx="158.1" cy="-139.47" rx="62.23" ry="28.99"/>
<text text-anchor="start" x="122.1" y="-142.67" font-family="Times,serif" font-size="14.00">data &#45;0.8196 </text>
<text text-anchor="middle" x="158.1" y="-126.17" font-family="Times,serif" font-size="14.00">grad 0.0000 </text>
</g>
<!-- 2 -->
<g id="node3" class="node">
<title>2</title>
<ellipse fill="none" stroke="black" cx="158.1" cy="-28.99" rx="60.1" ry="28.99"/>
<text text-anchor="start" x="123.6" y="-32.19" font-family="Times,serif" font-size="14.00">data 0.0000 </text>
<text text-anchor="middle" x="158.1" y="-15.69" font-family="Times,serif" font-size="14.00">grad 1.0000 </text>
</g>
<!-- 0&#45;&gt;2 -->
<g id="edge3" class="edge">
<title>0&#45;&gt;2</title>
<path fill="none" stroke="black" d="M158.1,-110.25C158.1,-97.92 158.1,-83.24 158.1,-69.82"/>
<polygon fill="black" stroke="black" points="161.6,-69.96 158.1,-59.96 154.6,-69.96 161.6,-69.96"/>
<text text-anchor="middle" x="174.6" y="-79.18" font-family="Times,serif" font-size="14.00">ReLU</text>
</g>
<!-- 1 -->
<g id="node2" class="node">
<title>1</title>
<ellipse fill="none" stroke="black" cx="342.1" cy="-470.92" rx="62.23" ry="28.99"/>
<text text-anchor="start" x="306.1" y="-474.12" font-family="Times,serif" font-size="14.00">data &#45;0.1318 </text>
<text text-anchor="middle" x="342.1" y="-457.62" font-family="Times,serif" font-size="14.00">grad 0.0000 </text>
</g>
<!-- 8 -->
<g id="node9" class="node">
<title>8</title>
<ellipse fill="none" stroke="black" cx="342.1" cy="-360.44" rx="60.1" ry="28.99"/>
<text text-anchor="start" x="307.6" y="-363.64" font-family="Times,serif" font-size="14.00">data 0.2636 </text>
<text text-anchor="middle" x="342.1" y="-347.14" font-family="Times,serif" font-size="14.00">grad 0.0000 </text>
</g>
<!-- 1&#45;&gt;8 -->
<g id="edge5" class="edge">
<title>1&#45;&gt;8</title>
<path fill="none" stroke="black" d="M342.1,-441.7C342.1,-429.37 342.1,-414.68 342.1,-401.27"/>
<polygon fill="black" stroke="black" points="345.6,-401.41 342.1,-391.41 338.6,-401.41 345.6,-401.41"/>
<text text-anchor="middle" x="345.48" y="-410.63" font-family="Times,serif" font-size="14.00">*</text>
</g>
<!-- 3 -->
<g id="node4" class="node">
<title>3</title>
<ellipse fill="none" stroke="black" cx="60.1" cy="-470.92" rx="60.1" ry="28.99"/>
<text text-anchor="start" x="25.6" y="-474.12" font-family="Times,serif" font-size="14.00">data 1.0000 </text>
<text text-anchor="middle" x="60.1" y="-457.62" font-family="Times,serif" font-size="14.00">grad 0.0000 </text>
</g>
<!-- 6 -->
<g id="node7" class="node">
<title>6</title>
<ellipse fill="none" stroke="black" cx="200.1" cy="-360.44" rx="62.23" ry="28.99"/>
<text text-anchor="start" x="164.1" y="-363.64" font-family="Times,serif" font-size="14.00">data &#45;0.8519 </text>
<text text-anchor="middle" x="200.1" y="-347.14" font-family="Times,serif" font-size="14.00">grad 0.0000 </text>
</g>
<!-- 3&#45;&gt;6 -->
<g id="edge2" class="edge">
<title>3&#45;&gt;6</title>
<path fill="none" stroke="black" d="M91.17,-445.85C111.33,-430.23 137.81,-409.71 159.61,-392.82"/>
<polygon fill="black" stroke="black" points="161.68,-395.64 167.44,-386.75 157.39,-390.11 161.68,-395.64"/>
<text text-anchor="middle" x="142.48" y="-410.63" font-family="Times,serif" font-size="14.00">*</text>
</g>
<!-- 4 -->
<g id="node5" class="node">
<title>4</title>
<ellipse fill="none" stroke="black" cx="143.1" cy="-249.96" rx="62.23" ry="28.99"/>
<text text-anchor="start" x="107.1" y="-253.16" font-family="Times,serif" font-size="14.00">data &#45;0.2312 </text>
<text text-anchor="middle" x="143.1" y="-236.66" font-family="Times,serif" font-size="14.00">grad 0.0000 </text>
</g>
<!-- 4&#45;&gt;0 -->
<g id="edge7" class="edge">
<title>4&#45;&gt;0</title>
<path fill="none" stroke="black" d="M147.01,-220.74C148.74,-208.18 150.82,-193.19 152.7,-179.58"/>
<polygon fill="black" stroke="black" points="156.11,-180.44 154.01,-170.05 149.18,-179.48 156.11,-180.44"/>
<text text-anchor="middle" x="156.23" y="-189.67" font-family="Times,serif" font-size="14.00">+</text>
</g>
<!-- 5 -->
<g id="node6" class="node">
<title>5</title>
<ellipse fill="none" stroke="black" cx="285.1" cy="-249.96" rx="62.23" ry="28.99"/>
<text text-anchor="start" x="249.1" y="-253.16" font-family="Times,serif" font-size="14.00">data &#45;0.5884 </text>
<text text-anchor="middle" x="285.1" y="-236.66" font-family="Times,serif" font-size="14.00">grad 0.0000 </text>
</g>
<!-- 5&#45;&gt;0 -->
<g id="edge8" class="edge">
<title>5&#45;&gt;0</title>
<path fill="none" stroke="black" d="M255.97,-224.07C238.06,-208.77 214.93,-189.02 195.66,-172.55"/>
<polygon fill="black" stroke="black" points="198.13,-170.06 188.26,-166.23 193.59,-175.39 198.13,-170.06"/>
<text text-anchor="middle" x="234.23" y="-189.67" font-family="Times,serif" font-size="14.00">+</text>
</g>
<!-- 6&#45;&gt;5 -->
<g id="edge9" class="edge">
<title>6&#45;&gt;5</title>
<path fill="none" stroke="black" d="M220.9,-332.9C231.81,-318.98 245.32,-301.73 257.13,-286.65"/>
<polygon fill="black" stroke="black" points="259.88,-288.82 263.3,-278.79 254.37,-284.5 259.88,-288.82"/>
<text text-anchor="middle" x="252.23" y="-300.15" font-family="Times,serif" font-size="14.00">+</text>
</g>
<!-- 7 -->
<g id="node8" class="node">
<title>7</title>
<ellipse fill="none" stroke="black" cx="200.1" cy="-470.92" rx="62.23" ry="28.99"/>
<text text-anchor="start" x="164.1" y="-474.12" font-family="Times,serif" font-size="14.00">data &#45;0.8519 </text>
<text text-anchor="middle" x="200.1" y="-457.62" font-family="Times,serif" font-size="14.00">grad 0.0000 </text>
</g>
<!-- 7&#45;&gt;6 -->
<g id="edge6" class="edge">
<title>7&#45;&gt;6</title>
<path fill="none" stroke="black" d="M200.1,-441.7C200.1,-429.37 200.1,-414.68 200.1,-401.27"/>
<polygon fill="black" stroke="black" points="203.6,-401.41 200.1,-391.41 196.6,-401.41 203.6,-401.41"/>
<text text-anchor="middle" x="203.48" y="-410.63" font-family="Times,serif" font-size="14.00">*</text>
</g>
<!-- 8&#45;&gt;5 -->
<g id="edge1" class="edge">
<title>8&#45;&gt;5</title>
<path fill="none" stroke="black" d="M327.72,-332.06C320.77,-318.83 312.31,-302.74 304.78,-288.4"/>
<polygon fill="black" stroke="black" points="307.94,-286.89 300.19,-279.66 301.74,-290.14 307.94,-286.89"/>
<text text-anchor="middle" x="321.23" y="-300.15" font-family="Times,serif" font-size="14.00">+</text>
</g>
<!-- 9 -->
<g id="node10" class="node">
<title>9</title>
<ellipse fill="none" stroke="black" cx="484.1" cy="-470.92" rx="62.23" ry="28.99"/>
<text text-anchor="start" x="448.1" y="-474.12" font-family="Times,serif" font-size="14.00">data &#45;2.0000 </text>
<text text-anchor="middle" x="484.1" y="-457.62" font-family="Times,serif" font-size="14.00">grad 0.0000 </text>
</g>
<!-- 9&#45;&gt;8 -->
<g id="edge4" class="edge">
<title>9&#45;&gt;8</title>
<path fill="none" stroke="black" d="M452.24,-445.58C431.63,-429.83 404.63,-409.21 382.52,-392.32"/>
<polygon fill="black" stroke="black" points="384.65,-389.54 374.58,-386.25 380.4,-395.1 384.65,-389.54"/>
<text text-anchor="middle" x="424.48" y="-410.63" font-family="Times,serif" font-size="14.00">*</text>
</g>
</g>
</svg>
